<svg width="193" height="240" viewBox="20 20  193 240" fill="none" xmlns="http://www.w3.org/2000/svg">
<g filter="url(#filter0_d_1_542)">
<path d="M115.191 115.837C120.608 116.74 125.315 118.806 129.313 122.033C133.44 125.131 136.6 129.133 138.792 134.039C140.984 138.815 142.081 144.237 142.081 150.304C142.081 158.308 140.082 165.279 136.084 171.217C132.215 177.155 126.669 181.738 119.447 184.965C112.225 188.322 103.714 190 93.9124 190C84.1111 190 75.4705 188.257 67.9905 184.772C60.5106 181.415 54.5138 176.51 50 170.055L62.9609 155.339C66.0561 159.986 70.054 163.665 74.9546 166.376C79.8552 169.216 86.0455 170.636 93.5255 170.636C101.908 170.636 108.421 168.829 113.064 165.214C117.706 161.6 120.028 156.178 120.028 148.949C120.028 141.462 117.448 135.588 112.29 131.328C107.26 127.068 99.6513 124.938 89.4631 124.938H84.24V108.285H90.0434C98.684 108.285 105.326 106.284 109.968 102.282C114.611 98.1512 116.932 92.9876 116.932 86.7912C116.932 82.6602 115.965 79.3038 114.031 76.722C112.225 74.0111 109.646 72.0101 106.293 70.7192C102.94 69.4283 99.0709 68.7829 94.6861 68.7829C88.109 68.7829 82.3056 70.2029 77.276 73.0429C72.2463 75.8829 68.2485 79.9493 65.2823 85.2421L51.9345 70.7192C54.5138 66.5883 58.0603 62.9737 62.574 59.8755C67.0878 56.7773 72.2463 54.3891 78.0497 52.7109C83.9821 50.9036 90.2369 50 96.8141 50C105.326 50 112.806 51.42 119.254 54.26C125.702 57.1001 130.667 61.1019 134.149 66.2656C137.76 71.4292 139.566 77.4965 139.566 84.4675C139.566 89.5021 138.599 94.2785 136.664 98.7967C134.73 103.186 131.892 106.929 128.152 110.028C124.412 112.997 120.092 114.933 115.191 115.837Z" fill="white"/>
</g>
<defs>
<filter id="filter0_d_1_542" x="0" y="0" width="192.08" height="240" filterUnits="userSpaceOnUse" color-interpolation-filters="sRGB">
<feFlood flood-opacity="0" result="BackgroundImageFix"/>
<feColorMatrix in="SourceAlpha" type="matrix" values="0 0 0 0 0 0 0 0 0 0 0 0 0 0 0 0 0 0 127 0" result="hardAlpha"/>
<feOffset/>
<feGaussianBlur stdDeviation="25"/>
<feComposite in2="hardAlpha" operator="out"/>
<feColorMatrix type="matrix" values="0 0 0 0 0.258824 0 0 0 0 0.196078 0 0 0 0 0.576471 0 0 0 0.5 0"/>
<feBlend mode="normal" in2="BackgroundImageFix" result="effect1_dropShadow_1_542"/>
<feBlend mode="normal" in="SourceGraphic" in2="effect1_dropShadow_1_542" result="shape"/>
</filter>
</defs>
</svg>
