<svg width="169" height="201"  viewBox="20 20 169 201" fill="none" xmlns="http://www.w3.org/2000/svg">
<g filter="url(#filter0_d_154_2596)">
<path d="M82.3968 150.5C75.2593 150.5 68.817 148.972 63.07 145.917C57.3229 142.861 52.9662 138.694 50 133.417L60.7063 122.306C63.3017 125.917 66.546 128.787 70.4392 130.917C74.3324 133.046 78.3646 134.111 82.5359 134.111C85.8729 134.111 88.7928 133.417 91.2955 132.028C93.891 130.639 95.9303 128.694 97.4134 126.194C98.8965 123.694 99.6381 120.824 99.6381 117.583C99.6381 114.343 98.9429 111.519 97.5524 109.111C96.162 106.704 94.2618 104.852 91.8517 103.556C89.4416 102.167 86.7072 101.472 83.6482 101.472C80.5893 101.472 77.7158 102.167 75.0276 103.556C72.4321 104.852 70.3465 106.75 68.7707 109.25H52.5028L63.9042 50.5H112.569V67.4444H77.3913L73.3591 89.5278C74.5641 88.4167 76.2326 87.4907 78.3646 86.75C80.4966 85.9167 83.1384 85.5 86.29 85.5C92.5006 85.5 98.0623 86.8426 102.975 89.5278C107.888 92.213 111.735 95.963 114.516 100.778C117.296 105.5 118.687 110.963 118.687 117.167C118.687 123.741 117.111 129.528 113.959 134.528C110.808 139.62 106.497 143.556 101.028 146.333C95.5595 149.111 89.349 150.5 82.3968 150.5Z" fill="white"/>
</g>
<defs>
<filter id="filter0_d_154_2596" x="0" y="0.5" width="168.688" height="200" filterUnits="userSpaceOnUse" color-interpolation-filters="sRGB">
<feFlood flood-opacity="0" result="BackgroundImageFix"/>
<feColorMatrix in="SourceAlpha" type="matrix" values="0 0 0 0 0 0 0 0 0 0 0 0 0 0 0 0 0 0 127 0" result="hardAlpha"/>
<feOffset/>
<feGaussianBlur stdDeviation="25"/>
<feComposite in2="hardAlpha" operator="out"/>
<feColorMatrix type="matrix" values="0 0 0 0 0.615686 0 0 0 0 0.180392 0 0 0 0 0.494118 0 0 0 0.5 0"/>
<feBlend mode="normal" in2="BackgroundImageFix" result="effect1_dropShadow_154_2596"/>
<feBlend mode="normal" in="SourceGraphic" in2="effect1_dropShadow_154_2596" result="shape"/>
</filter>
</defs>
</svg>
