<svg width="80" height="80" viewBox="0 0 80 80" fill="none" xmlns="http://www.w3.org/2000/svg">
<path fill-rule="evenodd" clip-rule="evenodd" d="M13 40.4491C13 25.2894 25.2894 12.9999 40.4492 12.9999C55.6089 12.9999 67.8983 25.2894 67.8983 40.4491C67.8983 55.6088 55.6089 67.8983 40.4492 67.8983C25.2894 67.8983 13 55.6088 13 40.4491ZM40.4492 9.99995C23.6325 9.99995 10 23.6325 10 40.4491C10 57.2657 23.6325 70.8983 40.4492 70.8983C57.2658 70.8983 70.8983 57.2657 70.8983 40.4491C70.8983 23.6325 57.2658 9.99995 40.4492 9.99995ZM57.2091 38.9491C56.3807 38.9491 55.7091 39.6207 55.7091 40.4491C55.7091 41.2775 56.3807 41.9491 57.2091 41.9491H63.3037C64.1321 41.9491 64.8037 41.2775 64.8037 40.4491C64.8037 39.6207 64.1321 38.9491 63.3037 38.9491H57.2091ZM16.0949 40.4491C16.0949 39.6207 16.7664 38.9491 17.5949 38.9491H23.6894C24.5178 38.9491 25.1894 39.6207 25.1894 40.4491C25.1894 41.2775 24.5178 41.9491 23.6894 41.9491H17.5949C16.7664 41.9491 16.0949 41.2775 16.0949 40.4491ZM41.9492 57.2091C41.9492 56.3806 41.2776 55.7091 40.4492 55.7091C39.6207 55.7091 38.9492 56.3806 38.9492 57.2091V63.3036C38.9492 64.132 39.6207 64.8036 40.4492 64.8036C41.2776 64.8036 41.9492 64.132 41.9492 63.3036V57.2091ZM40.4492 16.0944C41.2776 16.0944 41.9492 16.766 41.9492 17.5944V23.689C41.9492 24.5174 41.2776 25.189 40.4492 25.189C39.6207 25.189 38.9492 24.5174 38.9492 23.689V17.5944C38.9492 16.766 39.6207 16.0944 40.4492 16.0944ZM53.8444 31.7516C54.4937 31.2372 54.6031 30.2938 54.0887 29.6444C53.5743 28.995 52.6309 28.8856 51.9815 29.4L40.6918 38.3435L37.6012 34.4569C37.0856 33.8085 36.142 33.7009 35.4936 34.2165C34.8451 34.7321 34.7375 35.6757 35.2531 36.3241L39.2755 41.3826C39.7905 42.0302 40.7325 42.1385 41.381 41.6248L53.8444 31.7516Z" fill="url(#paint0_linear_1_404)"/>
<defs>
<linearGradient id="paint0_linear_1_404" x1="8.1889" y1="22.1796" x2="65.4775" y2="63.4621" gradientUnits="userSpaceOnUse">
<stop stop-color="#CE2574"/>
<stop offset="1" stop-color="#1C259B"/>
</linearGradient>
</defs>
</svg>
