<svg width="80" height="80" viewBox="0 0 80 80" fill="none" xmlns="http://www.w3.org/2000/svg">
<g id="Warning / Shield_Check">
<path id="Union" fill-rule="evenodd" clip-rule="evenodd" d="M34.1994 18.5H18.2988V34.4006C18.2988 35.2291 17.6273 35.9006 16.7988 35.9006C15.9704 35.9006 15.2988 35.2291 15.2988 34.4006V18.4427C15.2988 16.8193 16.6181 15.5 18.2415 15.5H34.1994C35.0278 15.5 35.6994 16.1716 35.6994 17C35.6994 17.8284 35.0278 18.5 34.1994 18.5ZM44.3003 17C44.3003 16.1716 44.9719 15.5 45.8003 15.5H61.7583C63.3817 15.5 64.7009 16.8193 64.7009 18.4427V34.4006C64.7009 35.2291 64.0294 35.9006 63.2009 35.9006C62.3725 35.9006 61.7009 35.2291 61.7009 34.4006V18.5H45.8003C44.9719 18.5 44.3003 17.8284 44.3003 17ZM63.2009 50.3011C64.0294 50.3011 64.7009 50.9727 64.7009 51.8011V61.9589C64.7009 63.5822 63.3817 64.9016 61.7583 64.9016H45.8003C44.9719 64.9016 44.3003 64.23 44.3003 63.4016C44.3003 62.5731 44.9719 61.9016 45.8003 61.9016H61.7009V51.8011C61.7009 50.9727 62.3725 50.3011 63.2009 50.3011ZM16.7988 50.3011C17.6273 50.3011 18.2988 50.9727 18.2988 51.8011V61.9016H34.1994C35.0278 61.9016 35.6994 62.5731 35.6994 63.4016C35.6994 64.23 35.0278 64.9016 34.1994 64.9016H18.2415C16.6181 64.9016 15.2988 63.5822 15.2988 61.9589V51.8011C15.2988 50.9727 15.9704 50.3011 16.7988 50.3011ZM12 44.501C11.1716 44.501 10.5 45.1726 10.5 46.001C10.5 46.8294 11.1716 47.501 12 47.501H68C68.8284 47.501 69.5 46.8294 69.5 46.001C69.5 45.1726 68.8284 44.501 68 44.501H12Z" fill="url(#paint0_linear_1_418)"/>
</g>
<defs>
<linearGradient id="paint0_linear_1_418" x1="8.74535" y1="25.3803" x2="57.1891" y2="67.0717" gradientUnits="userSpaceOnUse">
<stop stop-color="#CE2574"/>
<stop offset="1" stop-color="#1C259B"/>
</linearGradient>
</defs>
</svg>
