<svg width="280" height="45" viewBox="0 0 280 45" fill="none" xmlns="http://www.w3.org/2000/svg">
<path d="M36.9771 9.20106H23.5985V44.3889H13.4406V9.20106H0V0.248678H36.9771V9.20106Z" fill="white"/>
<path d="M63.4622 44.3889V0.248678H83.2825C85.3471 0.248678 87.2465 0.683863 88.9808 1.55423C90.7564 2.38316 92.2842 3.52293 93.5642 4.97355C94.8443 6.38272 95.8353 7.9784 96.5373 9.76058C97.2805 11.5428 97.6522 13.3457 97.6522 15.1693C97.6522 16.9929 97.3631 18.7337 96.785 20.3915C96.2069 22.0079 95.3811 23.4793 94.3075 24.8056C93.2339 26.0904 91.9538 27.1473 90.4673 27.9762L100.13 44.3889H88.9189L80.4953 30.1521H73.6201V44.3889H63.4622ZM73.6201 21.2619H82.9109C83.7367 21.2619 84.4593 21.0132 85.0787 20.5159C85.7394 19.9771 86.2762 19.2518 86.6891 18.3399C87.102 17.4281 87.3085 16.3713 87.3085 15.1693C87.3085 13.9674 87.0607 12.9312 86.5652 12.0608C86.111 11.149 85.5329 10.4444 84.8309 9.94709C84.129 9.44973 83.3857 9.20106 82.6012 9.20106H73.6201V21.2619Z" fill="white"/>
<path d="M126.48 44.3889V0.248678H136.638V44.3889H126.48Z" fill="white"/>
<path d="M185.837 44.7619C182.533 44.7619 179.54 44.1402 176.856 42.8968C174.213 41.612 171.921 39.9127 169.98 37.7989C168.081 35.6437 166.615 33.2399 165.583 30.5873C164.551 27.8933 164.034 25.1164 164.034 22.2566C164.034 19.3139 164.571 16.5163 165.645 13.8638C166.76 11.2112 168.288 8.84877 170.228 6.77646C172.21 4.6627 174.543 3.00485 177.227 1.80291C179.911 0.60097 182.843 0 186.023 0C189.285 0 192.237 0.642416 194.88 1.92725C197.564 3.17063 199.855 4.86993 201.755 7.02513C203.696 9.18034 205.182 11.6049 206.214 14.2989C207.247 16.9515 207.763 19.6662 207.763 22.4431C207.763 25.3858 207.226 28.1834 206.152 30.836C205.079 33.4885 203.551 35.8717 201.569 37.9854C199.587 40.0578 197.254 41.7156 194.57 42.959C191.927 44.1609 189.016 44.7619 185.837 44.7619ZM174.378 22.381C174.378 24.0802 174.626 25.7381 175.121 27.3545C175.617 28.9295 176.34 30.3386 177.289 31.582C178.28 32.8254 179.498 33.8201 180.944 34.5661C182.389 35.3122 184.04 35.6852 185.899 35.6852C187.839 35.6852 189.532 35.3122 190.978 34.5661C192.423 33.7787 193.62 32.7425 194.57 31.4577C195.52 30.1728 196.222 28.7429 196.676 27.168C197.171 25.5516 197.419 23.9145 197.419 22.2566C197.419 20.5573 197.171 18.9202 196.676 17.3452C196.18 15.7703 195.437 14.3611 194.446 13.1177C193.455 11.8329 192.237 10.8382 190.792 10.1336C189.347 9.42901 187.715 9.07672 185.899 9.07672C183.958 9.07672 182.265 9.44974 180.82 10.1958C179.416 10.9418 178.218 11.9572 177.227 13.2421C176.278 14.4854 175.555 15.9153 175.059 17.5317C174.605 19.1067 174.378 20.7231 174.378 22.381Z" fill="white"/>
<path d="M269.842 44.3889V18.0913L260.366 37.2394H254.791L245.315 18.0913V44.3889H235.157V0.248678H246.182L257.578 23.3135L269.037 0.248678H280V44.3889H269.842Z" fill="white"/>
</svg>
