<svg width="1320" height="154" viewBox="0 0 1320 154" fill="none" xmlns="http://www.w3.org/2000/svg">
<path d="M126.887 31.4558H80.9779V151.753H46.1213V31.4558H0V0.850159H126.887V31.4558Z" fill="white"/>
<path d="M307.566 151.753V0.850159H375.579C382.663 0.850159 389.181 2.33794 395.132 5.31349C401.225 8.14735 406.468 12.0439 410.86 17.0032C415.253 21.8207 418.654 27.2759 421.062 33.3687C423.613 39.4615 424.888 45.6251 424.888 51.8596C424.888 58.0941 423.896 64.0452 421.912 69.7129C419.929 75.239 417.095 80.2691 413.411 84.8032C409.727 89.1957 405.334 92.8089 400.233 95.6428L433.39 151.753H394.92L366.014 103.082H342.422V151.753H307.566ZM342.422 72.6885H374.303C377.137 72.6885 379.617 71.8383 381.742 70.138C384.009 68.296 385.851 65.8164 387.268 62.6991C388.685 59.5819 389.394 55.9687 389.394 51.8596C389.394 47.7505 388.544 44.2082 386.843 41.2327C385.285 38.1154 383.301 35.7066 380.892 34.0063C378.483 32.306 375.933 31.4558 373.241 31.4558H342.422V72.6885Z" fill="white"/>
<path d="M613.607 151.753V0.850159H648.464V151.753H613.607Z" fill="white"/>
<path d="M907.084 153.028C895.748 153.028 885.476 150.903 876.266 146.652C867.197 142.26 859.333 136.45 852.674 129.224C846.156 121.856 841.126 113.638 837.583 104.569C834.041 95.3594 832.27 85.8659 832.27 76.0891C832.27 66.0289 834.112 56.4646 837.796 47.3963C841.622 38.3279 846.864 30.2515 853.524 23.1668C860.325 15.9405 868.331 10.2727 877.541 6.16364C886.751 2.05455 896.811 0 907.722 0C918.915 0 929.047 2.19624 938.115 6.58873C947.325 10.8395 955.189 16.6489 961.707 24.017C968.366 31.385 973.467 39.674 977.01 48.8841C980.552 57.9524 982.323 67.2333 982.323 76.7267C982.323 86.7869 980.481 96.3512 976.797 105.42C973.113 114.488 967.871 122.635 961.069 129.862C954.268 136.946 946.262 142.614 937.052 146.865C927.984 150.974 917.994 153.028 907.084 153.028ZM867.764 76.5142C867.764 82.3236 868.614 87.9913 870.314 93.5173C872.015 98.9017 874.494 103.719 877.753 107.97C881.154 112.221 885.334 115.621 890.293 118.172C895.253 120.722 900.92 121.998 907.296 121.998C913.956 121.998 919.766 120.722 924.725 118.172C929.684 115.48 933.793 111.937 937.052 107.545C940.311 103.152 942.72 98.2641 944.279 92.8797C945.979 87.3537 946.829 81.7568 946.829 76.0891C946.829 70.2797 945.979 64.6828 944.279 59.2985C942.578 53.9142 940.028 49.0966 936.627 44.8458C933.226 40.4533 929.046 37.0527 924.087 34.6439C919.128 32.2352 913.531 31.0308 907.296 31.0308C900.637 31.0308 894.828 32.306 889.868 34.8565C885.051 37.4069 880.941 40.8784 877.541 45.2709C874.282 49.5217 871.802 54.4101 870.102 59.9361C868.543 65.3204 867.764 70.8465 867.764 76.5142Z" fill="white"/>
<path d="M1285.14 151.753V61.849L1252.62 127.311H1233.5L1200.98 61.849V151.753H1166.12V0.850159H1203.95L1243.06 79.7023L1282.38 0.850159H1320V151.753H1285.14Z" fill="white"/>
</svg>
