<svg width="212" height="240" viewBox="0 0 212 240" fill="none" xmlns="http://www.w3.org/2000/svg">
<g filter="url(#filter0_d_1_537)">
<path d="M50 190C50 183.253 50.5635 177.068 51.6905 171.446C52.8174 165.663 54.7494 160.201 57.4863 155.06C60.3843 149.92 64.3287 145.1 69.3196 140.602C74.4715 135.944 80.9918 131.526 88.8807 127.349C94.5155 124.137 99.8284 121.325 104.819 118.916C109.81 116.345 114.238 113.855 118.102 111.446C121.965 108.876 124.944 106.145 127.037 103.253C129.291 100.361 130.418 97.0683 130.418 93.3735C130.418 89.8394 129.452 86.5462 127.52 83.494C125.588 80.4418 122.69 78.0321 118.826 76.2651C114.962 74.3373 110.293 73.3735 104.819 73.3735C100.472 73.3735 96.4475 73.9357 92.7446 75.0602C89.2027 76.1847 85.9022 77.7108 82.8433 79.6385C79.9454 81.4056 77.2889 83.4137 74.874 85.6626C72.459 87.751 70.3661 89.8394 68.5951 91.9277L51.932 72.8916C53.5419 70.9639 56.0374 68.7952 59.4183 66.3855C62.9602 63.8153 67.1461 61.3253 71.976 58.9157C76.9669 56.3454 82.6018 54.257 88.8807 52.6506C95.1595 50.8835 102.002 50 109.408 50C119.872 50 128.808 51.7671 136.214 55.3012C143.619 58.6747 149.254 63.4137 153.118 69.5181C157.143 75.4618 159.156 82.2088 159.156 89.759C159.156 95.7028 157.948 100.924 155.533 105.422C153.279 109.92 150.301 113.936 146.598 117.47C142.895 120.843 138.951 123.815 134.765 126.386C130.74 128.795 126.956 130.964 123.414 132.892C117.136 135.944 111.662 138.755 106.993 141.325C102.485 143.896 98.6209 146.466 95.401 149.036C92.1811 151.446 89.5246 154.016 87.4317 156.747C85.3387 159.317 83.5678 162.45 82.1188 166.145H161.812V190H50Z" fill="white"/>
</g>
<defs>
<filter id="filter0_d_1_537" x="0" y="0" width="211.812" height="240" filterUnits="userSpaceOnUse" color-interpolation-filters="sRGB">
<feFlood flood-opacity="0" result="BackgroundImageFix"/>
<feColorMatrix in="SourceAlpha" type="matrix" values="0 0 0 0 0 0 0 0 0 0 0 0 0 0 0 0 0 0 127 0" result="hardAlpha"/>
<feOffset/>
<feGaussianBlur stdDeviation="25"/>
<feComposite in2="hardAlpha" operator="out"/>
<feColorMatrix type="matrix" values="0 0 0 0 0.615686 0 0 0 0 0.180392 0 0 0 0 0.494118 0 0 0 0.5 0"/>
<feBlend mode="normal" in2="BackgroundImageFix" result="effect1_dropShadow_1_537"/>
<feBlend mode="normal" in="SourceGraphic" in2="effect1_dropShadow_1_537" result="shape"/>
</filter>
</defs>
</svg>
