<svg width="48" height="48" viewBox="0 0 48 48" fill="none" xmlns="http://www.w3.org/2000/svg">
<path d="M15.7498 33.5218C15.7498 32.9141 16.2466 32.4215 16.8595 32.4215H31.74C32.3528 32.4215 32.8496 32.9141 32.8496 33.5218C32.8496 34.1295 32.3528 34.6221 31.74 34.6221H16.8595C16.2466 34.6221 15.7498 34.1295 15.7498 33.5218Z" fill="url(#paint0_linear_1_1309)"/>
<path fill-rule="evenodd" clip-rule="evenodd" d="M32.8496 14.8998V9.64198C32.8496 7.96193 31.4761 6.59998 29.7818 6.59998H18.8176C17.1233 6.59998 15.7498 7.96193 15.7498 9.64198V14.8998H9.66761C7.88401 14.8998 6.4764 16.4028 6.60816 18.1666L8.17813 39.1827C8.29679 40.7712 9.63118 42 11.2376 42H37.3616C38.968 42 40.3024 40.7712 40.4211 39.1827L41.9911 18.1666C42.1228 16.4028 40.7152 14.8998 38.9316 14.8998H32.8496ZM18.8176 8.80058C18.349 8.80058 17.9691 9.17729 17.9691 9.64198V14.8998H30.6304V9.64198C30.6304 9.17729 30.2504 8.80058 29.7818 8.80058H18.8176ZM30.6304 17.1004V19.689C30.6304 20.2966 31.1272 20.7893 31.74 20.7893C32.3528 20.7893 32.8496 20.2966 32.8496 19.689V17.1004H38.9316C39.4249 17.1004 39.8143 17.5161 39.7778 18.004L38.2079 39.0201C38.1751 39.4595 37.806 39.7994 37.3616 39.7994H11.2376C10.7933 39.7994 10.4242 39.4595 10.3913 39.0201L8.82138 18.004C8.78494 17.5161 9.17428 17.1004 9.66761 17.1004H15.7498V19.689C15.7498 20.2966 16.2466 20.7893 16.8595 20.7893C17.4723 20.7893 17.9691 20.2966 17.9691 19.689V17.1004H30.6304Z" fill="url(#paint1_linear_1_1309)"/>
<defs>
<linearGradient id="paint0_linear_1_1309" x1="5.54682" y1="13.68" x2="38.8485" y2="37.6774" gradientUnits="userSpaceOnUse">
<stop stop-color="#CE2574"/>
<stop offset="1" stop-color="#1C259B"/>
</linearGradient>
<linearGradient id="paint1_linear_1_1309" x1="5.54682" y1="13.68" x2="38.8485" y2="37.6774" gradientUnits="userSpaceOnUse">
<stop stop-color="#CE2574"/>
<stop offset="1" stop-color="#1C259B"/>
</linearGradient>
</defs>
</svg>
