<svg width="48" height="48" viewBox="0 0 48 48" fill="none" xmlns="http://www.w3.org/2000/svg">
<path d="M20.1353 16.5653C20.1353 14.3075 21.9645 12.4918 24.2088 12.4918C26.4666 12.4918 28.2823 14.321 28.2823 16.5653C28.2823 17.228 28.8195 17.7653 29.4823 17.7653C30.145 17.7653 30.6823 17.228 30.6823 16.5653C30.6823 13.0012 27.7977 10.0918 24.2088 10.0918C20.6447 10.0918 17.7353 12.9764 17.7353 16.5653C17.7353 17.228 18.2726 17.7653 18.9353 17.7653C19.5981 17.7653 20.1353 17.228 20.1353 16.5653Z" fill="url(#paint0_linear_1_1313)"/>
<path fill-rule="evenodd" clip-rule="evenodd" d="M24.2085 4.80005C14.7167 4.80005 8.54422 14.7943 12.7384 23.288L12.7413 23.2938L22.2592 42.3106L22.2621 42.3161C23.058 43.866 25.3283 43.9236 26.1248 42.2999L35.6371 23.2944C39.8974 14.795 33.7166 4.80005 24.2085 4.80005ZM14.8903 22.2254L14.8889 22.2225C11.4814 15.3168 16.5052 7.20005 24.2085 7.20005C31.9346 7.20005 36.9505 15.3183 33.4916 22.219L33.4912 22.2196L24.1893 40.8047L14.8903 22.2254Z" fill="url(#paint1_linear_1_1313)"/>
<defs>
<linearGradient id="paint0_linear_1_1313" x1="10.6388" y1="12.5397" x2="40.458" y2="26.7591" gradientUnits="userSpaceOnUse">
<stop stop-color="#CE2574"/>
<stop offset="1" stop-color="#1C259B"/>
</linearGradient>
<linearGradient id="paint1_linear_1_1313" x1="10.6388" y1="12.5397" x2="40.458" y2="26.7591" gradientUnits="userSpaceOnUse">
<stop stop-color="#CE2574"/>
<stop offset="1" stop-color="#1C259B"/>
</linearGradient>
</defs>
</svg>
