<svg width="48" height="48" viewBox="0 0 32 32" fill="none" xmlns="http://www.w3.org/2000/svg">
<g id="icons/features/sell">
<g id="Union">
<mask id="path-1-inside-1_1_2828" fill="white">
<path d="M13.8196 16.2051C13.5384 15.9239 13.0826 15.9239 12.8014 16.2051C12.5202 16.4863 12.5202 16.9422 12.8014 17.2233L18.3081 22.7301C18.5893 23.0113 19.0452 23.0113 19.3264 22.7301C19.6075 22.4489 19.6075 21.993 19.3264 21.7118L13.8196 16.2051Z"/>
<path d="M19.827 16.2051C19.5458 15.9239 19.0899 15.9239 18.8087 16.2051C18.5276 16.4863 18.5276 16.9422 18.8087 17.2233L21.3118 19.7264C21.593 20.0076 22.0489 20.0076 22.3301 19.7264C22.6112 19.4452 22.6112 18.9893 22.3301 18.7082L19.827 16.2051Z"/>
<path d="M10.5142 9.49832C10.3264 9.31056 10.0717 9.20507 9.80619 9.20507C9.54065 9.20507 9.28598 9.31056 9.09821 9.49832C8.91045 9.68609 8.80496 9.94076 8.80496 10.2063C8.80496 10.4718 8.91045 10.7265 9.09821 10.9143C9.28598 11.102 9.54065 11.2075 9.80619 11.2075C10.0717 11.2075 10.3264 11.102 10.5142 10.9143C10.7019 10.7265 10.8074 10.4718 10.8074 10.2063C10.8074 9.94076 10.7019 9.68609 10.5142 9.49832Z"/>
<path fill-rule="evenodd" clip-rule="evenodd" d="M4.08008 15.3847C4.08023 16.1067 4.36713 16.799 4.87768 17.3094L15.8912 28.3229C16.4017 28.8333 17.0941 29.1201 17.816 29.1201C18.5379 29.1201 19.2303 28.8334 19.7408 28.323L27.9229 20.1409C28.4333 19.6304 28.7201 18.9379 28.7201 18.2161C28.7201 17.4942 28.4334 16.8018 27.923 16.2913L16.9095 5.27778C16.3991 4.76724 15.7067 4.48026 14.9847 4.4801H6.80253C6.08049 4.4801 5.38802 4.76693 4.87747 5.27749C4.36691 5.78805 4.08008 6.48052 4.08008 7.20256V15.3847ZM5.89584 16.2911C5.65535 16.0507 5.52019 15.7246 5.52008 15.3846L5.52008 7.20256C5.52008 6.86243 5.65519 6.53623 5.8957 6.29573C6.13621 6.05522 6.4624 5.9201 6.80253 5.9201L14.9844 5.9201C15.3244 5.92022 15.6507 6.05538 15.8911 6.29586L26.9046 17.3094C27.145 17.5499 27.2801 17.876 27.2801 18.2161C27.2801 18.5561 27.145 18.8822 26.9046 19.1227L18.7227 27.3046C18.4822 27.545 18.1561 27.6801 17.816 27.6801C17.476 27.6801 17.1498 27.545 16.9093 27.3046L5.89584 16.2911Z"/>
</mask>
<path d="M13.8196 16.2051C13.5384 15.9239 13.0826 15.9239 12.8014 16.2051C12.5202 16.4863 12.5202 16.9422 12.8014 17.2233L18.3081 22.7301C18.5893 23.0113 19.0452 23.0113 19.3264 22.7301C19.6075 22.4489 19.6075 21.993 19.3264 21.7118L13.8196 16.2051Z" fill="url(#paint0_linear_1_2828)"/>
<path d="M19.827 16.2051C19.5458 15.9239 19.0899 15.9239 18.8087 16.2051C18.5276 16.4863 18.5276 16.9422 18.8087 17.2233L21.3118 19.7264C21.593 20.0076 22.0489 20.0076 22.3301 19.7264C22.6112 19.4452 22.6112 18.9893 22.3301 18.7082L19.827 16.2051Z" fill="url(#paint1_linear_1_2828)"/>
<path d="M10.5142 9.49832C10.3264 9.31056 10.0717 9.20507 9.80619 9.20507C9.54065 9.20507 9.28598 9.31056 9.09821 9.49832C8.91045 9.68609 8.80496 9.94076 8.80496 10.2063C8.80496 10.4718 8.91045 10.7265 9.09821 10.9143C9.28598 11.102 9.54065 11.2075 9.80619 11.2075C10.0717 11.2075 10.3264 11.102 10.5142 10.9143C10.7019 10.7265 10.8074 10.4718 10.8074 10.2063C10.8074 9.94076 10.7019 9.68609 10.5142 9.49832Z" fill="url(#paint2_linear_1_2828)"/>
<path fill-rule="evenodd" clip-rule="evenodd" d="M4.08008 15.3847C4.08023 16.1067 4.36713 16.799 4.87768 17.3094L15.8912 28.3229C16.4017 28.8333 17.0941 29.1201 17.816 29.1201C18.5379 29.1201 19.2303 28.8334 19.7408 28.323L27.9229 20.1409C28.4333 19.6304 28.7201 18.9379 28.7201 18.2161C28.7201 17.4942 28.4334 16.8018 27.923 16.2913L16.9095 5.27778C16.3991 4.76724 15.7067 4.48026 14.9847 4.4801H6.80253C6.08049 4.4801 5.38802 4.76693 4.87747 5.27749C4.36691 5.78805 4.08008 6.48052 4.08008 7.20256V15.3847ZM5.89584 16.2911C5.65535 16.0507 5.52019 15.7246 5.52008 15.3846L5.52008 7.20256C5.52008 6.86243 5.65519 6.53623 5.8957 6.29573C6.13621 6.05522 6.4624 5.9201 6.80253 5.9201L14.9844 5.9201C15.3244 5.92022 15.6507 6.05538 15.8911 6.29586L26.9046 17.3094C27.145 17.5499 27.2801 17.876 27.2801 18.2161C27.2801 18.5561 27.145 18.8822 26.9046 19.1227L18.7227 27.3046C18.4822 27.545 18.1561 27.6801 17.816 27.6801C17.476 27.6801 17.1498 27.545 16.9093 27.3046L5.89584 16.2911Z" fill="url(#paint3_linear_1_2828)"/>
<path d="M13.8196 16.2051L11.274 18.7507L11.274 18.7507L13.8196 16.2051ZM12.8014 17.2233L10.2558 19.7689L10.2558 19.7689L12.8014 17.2233ZM18.3081 22.7301L15.7626 25.2757L15.7626 25.2757L18.3081 22.7301ZM19.3264 22.7301L21.872 25.2757L21.872 25.2757L19.3264 22.7301ZM19.3264 21.7118L21.872 19.1663L21.872 19.1663L19.3264 21.7118ZM19.827 16.2051L22.3726 13.6595L22.3726 13.6595L19.827 16.2051ZM18.8087 16.2051L16.2632 13.6595L16.2632 13.6595L18.8087 16.2051ZM18.8087 17.2233L16.2632 19.7689L16.2632 19.7689L18.8087 17.2233ZM21.3118 19.7264L18.7662 22.272L18.7662 22.272L21.3118 19.7264ZM22.3301 19.7264L24.8756 22.272L24.8756 22.272L22.3301 19.7264ZM10.5142 9.49832L13.0597 6.95274L13.0597 6.95274L10.5142 9.49832ZM9.09821 9.49832L6.55263 6.95274L6.55263 6.95274L9.09821 9.49832ZM9.09821 10.9143L6.55263 13.4599L6.55263 13.4599L9.09821 10.9143ZM10.5142 10.9143L13.0597 13.4599L13.0597 13.4599L10.5142 10.9143ZM4.08008 15.3847H0.480078V15.3855L4.08008 15.3847ZM4.87768 17.3094L7.42326 14.7639L7.42298 14.7636L4.87768 17.3094ZM15.8912 28.3229L13.3456 30.8685L13.346 30.8689L15.8912 28.3229ZM19.7408 28.323L22.286 30.869L22.2864 30.8686L19.7408 28.323ZM27.9229 20.1409L30.4685 22.6865L30.4689 22.6861L27.9229 20.1409ZM27.923 16.2913L30.469 13.7461L30.4686 13.7457L27.923 16.2913ZM16.9095 5.27778L14.3636 7.82308L14.3639 7.82337L16.9095 5.27778ZM14.9847 4.4801L14.9855 0.880103H14.9847V4.4801ZM4.87747 5.27749L7.42305 7.82308L7.42305 7.82308L4.87747 5.27749ZM5.89584 16.2911L8.44142 13.7455L8.44104 13.7452L5.89584 16.2911ZM5.52008 15.3846H1.92008L1.92008 15.3858L5.52008 15.3846ZM5.52008 7.20256H1.92008V7.20256L5.52008 7.20256ZM5.8957 6.29573L8.44128 8.84131L8.44129 8.84131L5.8957 6.29573ZM6.80253 5.9201V9.5201V5.9201ZM14.9844 5.9201L14.9856 2.3201H14.9844V5.9201ZM15.8911 6.29586L13.3451 8.84107L13.3455 8.84145L15.8911 6.29586ZM26.9046 17.3094L29.4506 14.7642L29.4502 14.7638L26.9046 17.3094ZM26.9046 19.1227L29.4502 21.6683L29.4506 21.6679L26.9046 19.1227ZM18.7227 27.3046L21.2679 29.8506L21.2683 29.8502L18.7227 27.3046ZM16.9093 27.3046L14.3637 29.8502L14.3641 29.8506L16.9093 27.3046ZM16.3652 13.6595C14.6781 11.9724 11.9429 11.9725 10.2558 13.6595L15.347 18.7507C14.2223 19.8754 12.3988 19.8754 11.274 18.7507L16.3652 13.6595ZM10.2558 13.6595C8.56874 15.3466 8.56874 18.0818 10.2558 19.7689L15.347 14.6777C16.4717 15.8025 16.4717 17.626 15.347 18.7507L10.2558 13.6595ZM10.2558 19.7689L15.7626 25.2757L20.8537 20.1845L15.347 14.6777L10.2558 19.7689ZM15.7626 25.2757C17.4496 26.9627 20.1849 26.9627 21.872 25.2757L16.7808 20.1845C17.9055 19.0598 19.729 19.0598 20.8537 20.1845L15.7626 25.2757ZM21.872 25.2757C23.559 23.5886 23.559 20.8533 21.872 19.1663L16.7808 24.2574C15.6561 23.1327 15.6561 21.3092 16.7808 20.1845L21.872 25.2757ZM21.872 19.1663L16.3652 13.6595L11.274 18.7507L16.7808 24.2574L21.872 19.1663ZM22.3726 13.6595C20.6855 11.9724 17.9502 11.9724 16.2632 13.6595L21.3543 18.7507C20.2296 19.8754 18.4061 19.8754 17.2814 18.7507L22.3726 13.6595ZM16.2632 13.6595C14.5761 15.3466 14.5761 18.0818 16.2632 19.7689L21.3543 14.6777C22.479 15.8025 22.479 17.626 21.3543 18.7507L16.2632 13.6595ZM16.2632 19.7689L18.7662 22.272L23.8574 17.1808L21.3543 14.6777L16.2632 19.7689ZM18.7662 22.272C20.4533 23.959 23.1886 23.959 24.8756 22.272L19.7845 17.1808C20.9092 16.0561 22.7327 16.0561 23.8574 17.1808L18.7662 22.272ZM24.8756 22.272C26.5627 20.5849 26.5627 17.8496 24.8756 16.1626L19.7845 21.2537C18.6598 20.129 18.6598 18.3055 19.7845 17.1808L24.8756 22.272ZM24.8756 16.1626L22.3726 13.6595L17.2814 18.7507L19.7845 21.2537L24.8756 16.1626ZM13.0597 6.95274C12.1968 6.08984 11.0265 5.60507 9.80619 5.60507V12.8051C9.11695 12.8051 8.45595 12.5313 7.96858 12.0439L13.0597 6.95274ZM9.80619 5.60507C8.58587 5.60507 7.41553 6.08984 6.55263 6.95274L11.6438 12.0439C11.1564 12.5313 10.4954 12.8051 9.80619 12.8051V5.60507ZM6.55263 6.95274C5.68973 7.81564 5.20496 8.98598 5.20496 10.2063H12.405C12.405 10.8955 12.1312 11.5565 11.6438 12.0439L6.55263 6.95274ZM5.20496 10.2063C5.20496 11.4266 5.68973 12.597 6.55263 13.4599L11.6438 8.36869C12.1312 8.85606 12.405 9.51706 12.405 10.2063H5.20496ZM6.55263 13.4599C7.41553 14.3228 8.58587 14.8075 9.80619 14.8075V7.60753C10.4954 7.60753 11.1564 7.88132 11.6438 8.36869L6.55263 13.4599ZM9.80619 14.8075C11.0265 14.8075 12.1968 14.3228 13.0597 13.4599L7.96858 8.36869C8.45595 7.88132 9.11696 7.60753 9.80619 7.60753V14.8075ZM13.0597 13.4599C13.9226 12.597 14.4074 11.4266 14.4074 10.2063H7.20742C7.20742 9.51706 7.48121 8.85606 7.96858 8.36869L13.0597 13.4599ZM14.4074 10.2063C14.4074 8.98598 13.9226 7.81564 13.0597 6.95274L7.96858 12.0439C7.48121 11.5565 7.20742 10.8955 7.20742 10.2063H14.4074ZM0.480078 15.3855C0.480437 17.0621 1.14672 18.6699 2.33238 19.8553L7.42298 14.7636C7.58755 14.9281 7.68003 15.1513 7.68008 15.384L0.480078 15.3855ZM2.3321 19.855L13.3456 30.8685L18.4368 25.7773L7.42326 14.7639L2.3321 19.855ZM13.346 30.8689C14.5315 32.0541 16.1394 32.7201 17.816 32.7201V25.5201C18.0489 25.5201 18.2719 25.6126 18.4364 25.777L13.346 30.8689ZM17.816 32.7201C19.4925 32.7201 21.1004 32.0542 22.286 30.869L17.1956 25.777C17.3602 25.6125 17.5833 25.5201 17.816 25.5201V32.7201ZM22.2864 30.8686L30.4685 22.6865L25.3773 17.5953L17.1952 25.7774L22.2864 30.8686ZM30.4689 22.6861C31.654 21.5006 32.3201 19.8927 32.3201 18.2161H25.1201C25.1201 17.9832 25.2125 17.7602 25.3769 17.5957L30.4689 22.6861ZM32.3201 18.2161C32.3201 16.5396 31.6542 14.9317 30.469 13.7461L25.377 18.8365C25.2125 18.6719 25.1201 18.4487 25.1201 18.2161H32.3201ZM30.4686 13.7457L19.4551 2.7322L14.3639 7.82337L25.3774 18.8369L30.4686 13.7457ZM19.4554 2.73248C18.2701 1.54693 16.6622 0.88046 14.9855 0.880103L14.9839 8.0801C14.7511 8.08005 14.528 7.98754 14.3636 7.82308L19.4554 2.73248ZM14.9847 0.880103H6.80253V8.0801H14.9847V0.880103ZM6.80253 0.880103C5.12571 0.880103 3.51757 1.54622 2.33188 2.73191L7.42305 7.82308C7.25848 7.98765 7.03527 8.0801 6.80253 8.0801V0.880103ZM2.33188 2.73191C1.14619 3.9176 0.480078 5.52574 0.480078 7.20256H7.68008C7.68008 7.4353 7.58762 7.6585 7.42305 7.82308L2.33188 2.73191ZM0.480078 7.20256V15.3847H7.68008V7.20256H0.480078ZM8.44104 13.7452C8.87563 14.1796 9.11987 14.7689 9.12008 15.3834L1.92008 15.3858C1.92051 16.6804 2.43507 17.9218 3.35064 18.8371L8.44104 13.7452ZM9.12008 15.3846V7.20256L1.92008 7.20256L1.92008 15.3846H9.12008ZM9.12008 7.20256C9.12008 7.81721 8.87591 8.40669 8.44128 8.84131L3.35012 3.75014C2.43448 4.66578 1.92008 5.90765 1.92008 7.20256H9.12008ZM8.44129 8.84131C8.00666 9.27593 7.41718 9.5201 6.80253 9.5201V2.3201C5.50763 2.3201 4.26575 2.8345 3.35011 3.75015L8.44129 8.84131ZM6.80253 9.5201L14.9844 9.5201V2.3201L6.80253 2.3201L6.80253 9.5201ZM14.9832 9.5201C14.3692 9.5199 13.7799 9.27597 13.3451 8.84107L18.4371 3.75066C17.5215 2.83478 16.2797 2.32053 14.9856 2.3201L14.9832 9.5201ZM13.3455 8.84145L24.359 19.8549L29.4502 14.7638L18.4367 3.75028L13.3455 8.84145ZM24.3586 19.8546C23.9242 19.42 23.6801 18.8306 23.6801 18.2161H30.8801C30.8801 16.9214 30.3659 15.6798 29.4506 14.7642L24.3586 19.8546ZM23.6801 18.2161C23.6801 17.6015 23.9242 17.0122 24.3586 16.5775L29.4506 21.6679C30.3659 20.7523 30.8801 19.5107 30.8801 18.2161H23.6801ZM24.359 16.5772L16.1771 24.759L21.2683 29.8502L29.4502 21.6683L24.359 16.5772ZM16.1775 24.7587C16.6121 24.3242 17.2015 24.0801 17.816 24.0801V31.2801C19.1107 31.2801 20.3523 30.7659 21.2679 29.8506L16.1775 24.7587ZM17.816 24.0801C18.4306 24.0801 19.0199 24.3242 19.4545 24.7586L14.3641 29.8506C15.2797 30.7659 16.5214 31.2801 17.816 31.2801V24.0801ZM19.4549 24.759L8.44142 13.7455L3.35025 18.8367L14.3637 29.8502L19.4549 24.759Z" fill="url(#paint4_linear_1_2828)" mask="url(#path-1-inside-1_1_2828)"/>
</g>
</g>
<defs>
<linearGradient id="paint0_linear_1_2828" x1="3.34729" y1="9.4081" x2="26.5268" y2="26.1114" gradientUnits="userSpaceOnUse">
<stop stop-color="#CE2574"/>
<stop offset="1" stop-color="#1C259B"/>
</linearGradient>
<linearGradient id="paint1_linear_1_2828" x1="3.34729" y1="9.4081" x2="26.5268" y2="26.1114" gradientUnits="userSpaceOnUse">
<stop stop-color="#CE2574"/>
<stop offset="1" stop-color="#1C259B"/>
</linearGradient>
<linearGradient id="paint2_linear_1_2828" x1="3.34729" y1="9.4081" x2="26.5268" y2="26.1114" gradientUnits="userSpaceOnUse">
<stop stop-color="#CE2574"/>
<stop offset="1" stop-color="#1C259B"/>
</linearGradient>
<linearGradient id="paint3_linear_1_2828" x1="3.34729" y1="9.4081" x2="26.5268" y2="26.1114" gradientUnits="userSpaceOnUse">
<stop stop-color="#CE2574"/>
<stop offset="1" stop-color="#1C259B"/>
</linearGradient>
<linearGradient id="paint4_linear_1_2828" x1="3.34729" y1="9.4081" x2="26.5268" y2="26.1114" gradientUnits="userSpaceOnUse">
<stop stop-color="#CE2574"/>
<stop offset="1" stop-color="#1C259B"/>
</linearGradient>
</defs>
</svg>
