<svg width="48" height="48" viewBox="0 0 48 48" fill="none" xmlns="http://www.w3.org/2000/svg">
<path d="M14.4985 15.5202C14.5544 15.5761 14.6302 15.6075 14.7093 15.6075C14.7884 15.6075 14.8642 15.5761 14.9201 15.5202C14.976 15.4643 15.0074 15.3885 15.0074 15.3094C15.0074 15.2303 14.976 15.1545 14.9201 15.0986C14.8642 15.0426 14.7884 15.0112 14.7093 15.0112C14.6302 15.0112 14.5544 15.0426 14.4984 15.0986M14.4985 15.5202L14.4984 15.0986M14.4985 15.5202C14.4425 15.4643 14.4111 15.3885 14.4111 15.3094C14.4111 15.2303 14.4425 15.1545 14.4984 15.0986M14.4985 15.5202L13.6473 14.2474L14.4984 15.0986" fill="url(#paint0_linear_1_1302)" stroke="url(#paint1_linear_1_1302)" stroke-width="3.6"/>
<defs>
<linearGradient id="paint0_linear_1_1302" x1="5.02094" y1="14.1121" x2="39.7902" y2="39.167" gradientUnits="userSpaceOnUse">
<stop stop-color="#CE2574"/>
<stop offset="1" stop-color="#1C259B"/>
</linearGradient>
<linearGradient id="paint1_linear_1_1302" x1="5.02094" y1="14.1121" x2="39.7902" y2="39.167" gradientUnits="userSpaceOnUse">
<stop stop-color="#CE2574"/>
<stop offset="1" stop-color="#1C259B"/>
</linearGradient>
</defs>
</svg>
