<svg width="48" height="48" viewBox="0 0 48 48" fill="none" xmlns="http://www.w3.org/2000/svg">
<path d="M33.2241 10.4129C36.208 7.40899 41.0752 7.40899 44.0591 10.4129L44.0609 10.4148C44.4185 10.7724 44.4185 11.3601 44.0609 11.7177L44.0601 11.7186L37.129 18.6717C36.8249 18.9768 36.8256 19.4707 37.1307 19.7748C37.4358 20.0789 37.9297 20.0781 38.2338 19.773L45.164 12.8208C46.1302 11.8542 46.1307 10.2794 45.165 9.31262C41.5711 5.69562 35.7116 5.69576 32.1179 9.31303L32.1174 9.31354L12.6274 28.8697L12.6195 28.8778L12.6144 28.8831C11.909 29.6256 11.909 30.7822 12.6144 31.5248C12.6187 31.5292 12.623 31.5336 12.6273 31.538L18.2339 37.1667L18.235 37.1678C18.9811 37.9139 20.1593 37.9139 20.9053 37.1678L26.9534 31.1197C27.2581 30.8151 27.2581 30.3212 26.9534 30.0166C26.6488 29.712 26.155 29.712 25.8504 30.0166L19.8023 36.0647C19.6656 36.2014 19.4755 36.2016 19.3387 36.0653L19.3381 36.0647L13.7408 30.4454C13.6136 30.3066 13.6136 30.1013 13.7408 29.9625L33.2241 10.4129Z" fill="url(#paint0_linear_210_1349)"/>
<path d="M3.7332 26.9496C3.42929 26.6443 2.93542 26.6432 2.63011 26.9471C2.32481 27.251 2.32367 27.7449 2.62758 28.0502L17.0415 42.5303C17.3455 42.8357 17.8393 42.8368 18.1446 42.5329C18.4499 42.229 18.4511 41.7351 18.1472 41.4298L3.7332 26.9496Z" fill="url(#paint1_linear_210_1349)"/>
<path fill-rule="evenodd" clip-rule="evenodd" d="M30.6177 17.8323C31.5991 16.8509 33.2175 17.2357 33.705 18.4732L33.7074 18.4793L37.5923 28.5889L37.5926 28.5896C38.608 31.2396 37.9637 34.2334 35.9844 36.2375L35.981 36.2409C34.7207 37.5012 32.5641 37.0477 31.9202 35.3734L27.1313 22.9046L27.1306 22.9029C26.8682 22.2262 27.0158 21.4341 27.5495 20.9005L30.6177 17.8323ZM32.2527 19.0428C32.1653 18.8252 31.8867 18.7695 31.7208 18.9354L28.6526 22.0036C28.5686 22.0875 28.5395 22.2217 28.5852 22.3392L28.5864 22.3423L33.3762 34.8134C33.6149 35.4341 34.4147 35.599 34.8764 35.1393C36.4272 33.5676 36.93 31.2211 36.136 29.1483L32.2527 19.0428Z" fill="url(#paint2_linear_210_1349)"/>
<path fill-rule="evenodd" clip-rule="evenodd" d="M21.0091 11.9389C17.9896 10.7756 14.523 11.765 12.5914 14.4615C11.857 15.4712 12.337 16.8781 13.4417 17.32L13.4471 17.3221L16.5644 18.516C17.0222 18.6919 17.5274 18.6957 17.9686 18.6038C18.4102 18.5118 18.8661 18.3077 19.2131 17.978L19.2213 17.9702L22.4361 14.7333L22.442 14.727C22.7582 14.3942 22.9917 13.9285 22.9159 13.4116C22.8355 12.864 22.4434 12.4891 21.9779 12.3132L21.0098 11.9391L21.0091 11.9389ZM13.858 15.3721C15.3702 13.2589 18.0826 12.4834 20.4478 13.3944L21.2568 13.7069L18.1322 16.853C18.0365 16.9409 17.8661 17.0317 17.6504 17.0766C17.4295 17.1226 17.2397 17.1043 17.1238 17.0597L14.0174 15.8701C13.9235 15.8311 13.8498 15.749 13.8176 15.6439C13.7855 15.5395 13.8037 15.4465 13.8535 15.3784L13.858 15.3721Z" fill="url(#paint3_linear_210_1349)"/>
<defs>
<linearGradient id="paint0_linear_210_1349" x1="1.10705" y1="13.832" x2="36.6021" y2="44.5938" gradientUnits="userSpaceOnUse">
<stop stop-color="#CE2574"/>
<stop offset="1" stop-color="#1C259B"/>
</linearGradient>
<linearGradient id="paint1_linear_210_1349" x1="1.10705" y1="13.832" x2="36.6021" y2="44.5938" gradientUnits="userSpaceOnUse">
<stop stop-color="#CE2574"/>
<stop offset="1" stop-color="#1C259B"/>
</linearGradient>
<linearGradient id="paint2_linear_210_1349" x1="1.10705" y1="13.832" x2="36.6021" y2="44.5938" gradientUnits="userSpaceOnUse">
<stop stop-color="#CE2574"/>
<stop offset="1" stop-color="#1C259B"/>
</linearGradient>
<linearGradient id="paint3_linear_210_1349" x1="1.10705" y1="13.832" x2="36.6021" y2="44.5938" gradientUnits="userSpaceOnUse">
<stop stop-color="#CE2574"/>
<stop offset="1" stop-color="#1C259B"/>
</linearGradient>
</defs>
</svg>
