<svg width="48" height="48" viewBox="0 0 48 48" fill="none" xmlns="http://www.w3.org/2000/svg">
<g id="icons/features/list">
<g id="Union">
<path d="M24.6337 35.767C24.6337 35.27 25.0367 34.867 25.5337 34.867H30.9462C31.4433 34.867 31.8462 35.27 31.8462 35.767C31.8462 36.2641 31.4433 36.667 30.9462 36.667H25.5337C25.0367 36.667 24.6337 36.2641 24.6337 35.767Z" fill="url(#paint0_linear_210_1361)"/>
<path d="M16.5128 18.6293C16.0157 18.6293 15.6128 19.0323 15.6128 19.5293C15.6128 20.0264 16.0157 20.4293 16.5128 20.4293H29.142C29.6391 20.4293 30.042 20.0264 30.042 19.5293C30.042 19.0323 29.6391 18.6293 29.142 18.6293H16.5128Z" fill="url(#paint1_linear_210_1361)"/>
<path d="M15.6128 23.1376C15.6128 22.6405 16.0157 22.2376 16.5128 22.2376H29.142C29.6391 22.2376 30.042 22.6405 30.042 23.1376C30.042 23.6346 29.6391 24.0376 29.142 24.0376H16.5128C16.0157 24.0376 15.6128 23.6346 15.6128 23.1376Z" fill="url(#paint2_linear_210_1361)"/>
<path d="M16.5128 15.0209C16.0157 15.0209 15.6128 15.4239 15.6128 15.9209C15.6128 16.418 16.0157 16.8209 16.5128 16.8209H30.9462C31.4433 16.8209 31.8462 16.418 31.8462 15.9209C31.8462 15.4239 31.4433 15.0209 30.9462 15.0209H16.5128Z" fill="url(#paint3_linear_210_1361)"/>
<path d="M15.6128 12.3126C15.6128 11.8155 16.0157 11.4126 16.5128 11.4126H30.9462C31.4433 11.4126 31.8462 11.8155 31.8462 12.3126C31.8462 12.8096 31.4433 13.2126 30.9462 13.2126H16.5128C16.0157 13.2126 15.6128 12.8096 15.6128 12.3126Z" fill="url(#paint4_linear_210_1361)"/>
<path d="M16.5128 25.8459C16.0157 25.8459 15.6128 26.2489 15.6128 26.7459C15.6128 27.243 16.0157 27.6459 16.5128 27.6459H26.3095C26.8065 27.6459 27.2095 27.243 27.2095 26.7459C27.2095 26.2489 26.8065 25.8459 26.3095 25.8459H16.5128Z" fill="url(#paint5_linear_210_1361)"/>
<path fill-rule="evenodd" clip-rule="evenodd" d="M10.2002 7.8021C10.2002 6.82967 10.9884 6 12.0023 6H35.4747C36.4471 6 37.2768 6.78822 37.2768 7.8021V40.2954C37.2768 40.3065 37.2766 40.3176 37.2762 40.3287C37.2409 41.2803 36.465 42.0794 35.4747 42.0794H12.0023C11.0298 42.0794 10.2002 41.2912 10.2002 40.2774V7.8021ZM12.0002 7.80352V40.2767C12.0014 40.2779 12.0029 40.279 12.0037 40.2794H35.4695C35.4718 40.2772 35.474 40.2741 35.4754 40.2711C35.476 40.2698 35.4764 40.2684 35.4768 40.2669V7.80275C35.4756 7.80158 35.474 7.80042 35.4733 7.8H12.0029C12.0018 7.80119 12.0006 7.80274 12.0002 7.80352Z" fill="url(#paint6_linear_210_1361)"/>
</g>
</g>
<defs>
<linearGradient id="paint0_linear_210_1361" x1="9.39494" y1="13.2159" x2="39.3366" y2="29.4082" gradientUnits="userSpaceOnUse">
<stop stop-color="#CE2574"/>
<stop offset="1" stop-color="#1C259B"/>
</linearGradient>
<linearGradient id="paint1_linear_210_1361" x1="9.39494" y1="13.2159" x2="39.3366" y2="29.4082" gradientUnits="userSpaceOnUse">
<stop stop-color="#CE2574"/>
<stop offset="1" stop-color="#1C259B"/>
</linearGradient>
<linearGradient id="paint2_linear_210_1361" x1="9.39494" y1="13.2159" x2="39.3366" y2="29.4082" gradientUnits="userSpaceOnUse">
<stop stop-color="#CE2574"/>
<stop offset="1" stop-color="#1C259B"/>
</linearGradient>
<linearGradient id="paint3_linear_210_1361" x1="9.39494" y1="13.2159" x2="39.3366" y2="29.4082" gradientUnits="userSpaceOnUse">
<stop stop-color="#CE2574"/>
<stop offset="1" stop-color="#1C259B"/>
</linearGradient>
<linearGradient id="paint4_linear_210_1361" x1="9.39494" y1="13.2159" x2="39.3366" y2="29.4082" gradientUnits="userSpaceOnUse">
<stop stop-color="#CE2574"/>
<stop offset="1" stop-color="#1C259B"/>
</linearGradient>
<linearGradient id="paint5_linear_210_1361" x1="9.39494" y1="13.2159" x2="39.3366" y2="29.4082" gradientUnits="userSpaceOnUse">
<stop stop-color="#CE2574"/>
<stop offset="1" stop-color="#1C259B"/>
</linearGradient>
<linearGradient id="paint6_linear_210_1361" x1="9.39494" y1="13.2159" x2="39.3366" y2="29.4082" gradientUnits="userSpaceOnUse">
<stop stop-color="#CE2574"/>
<stop offset="1" stop-color="#1C259B"/>
</linearGradient>
</defs>
</svg>
