<svg width="48" height="48" viewBox="0 0 48 48" fill="none" xmlns="http://www.w3.org/2000/svg">
<g id="icons/features/sent">
<path id="Vector (Stroke)" fill-rule="evenodd" clip-rule="evenodd" d="M40.4653 8.10264C40.4418 8.098 40.4096 8.09742 40.3633 8.1181L40.3598 8.11967L6.9366 22.8811C6.91938 22.8897 6.91116 22.8967 6.90816 22.8996C6.90473 22.9028 6.90368 22.9047 6.90324 22.9055C6.90215 22.9075 6.89854 22.9161 6.90025 22.9314C6.90196 22.9467 6.90799 22.9591 6.91489 22.9671C6.91815 22.9709 6.92301 22.9756 6.93117 22.9806C6.93325 22.9819 6.93582 22.9833 6.93895 22.9849L18.5075 23.9289C19.0029 23.9693 19.3717 24.4037 19.3313 24.8991C19.2908 25.3945 18.8565 25.7634 18.3611 25.723L6.69336 24.7709C6.64587 24.767 6.59876 24.7594 6.55248 24.748C4.85844 24.3331 4.52759 22.0189 6.18061 21.2475C6.18625 21.2448 6.19191 21.2423 6.1976 21.2397L39.629 6.47468C39.6296 6.4744 39.6303 6.47413 39.6309 6.47385C40.4329 6.11644 41.2661 6.34226 41.7905 6.84517C42.319 7.35194 42.581 8.19782 42.1614 9.01081L26.4275 40.6652C26.4235 40.6732 26.4194 40.6812 26.4152 40.6891C25.6253 42.1657 23.3096 42.0087 22.8652 40.3051C22.8538 40.2614 22.8457 40.2169 22.841 40.172L21.2915 25.424C21.262 25.1435 21.3658 24.8654 21.5718 24.6727L35.1437 11.9782C35.5067 11.6387 36.0762 11.6577 36.4158 12.0207C36.7553 12.3837 36.7363 12.9533 36.3733 13.2928L23.1284 25.6813L24.6195 39.8736C24.6195 39.8736 24.6196 39.8736 24.6196 39.8736L24.6199 39.8739C24.63 39.8817 24.6545 39.895 24.6929 39.899C24.7312 39.9029 24.7634 39.8954 24.7838 39.8855C24.7976 39.8787 24.8108 39.8693 24.8242 39.8469L40.553 8.20258C40.5558 8.19711 40.5585 8.19166 40.5614 8.18624C40.5643 8.18067 40.5661 8.17645 40.5671 8.17355C40.5646 8.16808 40.5584 8.15746 40.5447 8.14431C40.5228 8.12331 40.494 8.1083 40.4653 8.10264Z" fill="url(#paint0_linear_210_1355)"/>
</g>
<defs>
<linearGradient id="paint0_linear_210_1355" x1="3.9892" y1="13.3793" x2="37.7966" y2="39.03" gradientUnits="userSpaceOnUse">
<stop stop-color="#CE2574"/>
<stop offset="1" stop-color="#1C259B"/>
</linearGradient>
</defs>
</svg>
