<svg width="48" height="48" viewBox="0 0 48 48" fill="none" xmlns="http://www.w3.org/2000/svg">
<path d="M34.3255 23.3695C33.8284 23.3695 33.4255 23.7724 33.4255 24.2695C33.4255 24.7665 33.8284 25.1695 34.3255 25.1695H37.9822C38.4793 25.1695 38.8822 24.7665 38.8822 24.2695C38.8822 23.7724 38.4793 23.3695 37.9822 23.3695H34.3255Z" fill="url(#paint0_linear_210_1343)"/>
<path d="M9.65691 24.2695C9.65691 23.7724 10.0599 23.3695 10.5569 23.3695H14.2136C14.7107 23.3695 15.1136 23.7724 15.1136 24.2695C15.1136 24.7665 14.7107 25.1695 14.2136 25.1695H10.5569C10.0599 25.1695 9.65691 24.7665 9.65691 24.2695Z" fill="url(#paint1_linear_210_1343)"/>
<path d="M25.1695 34.3254C25.1695 33.8284 24.7665 33.4254 24.2695 33.4254C23.7724 33.4254 23.3695 33.8284 23.3695 34.3254V37.9822C23.3695 38.4792 23.7724 38.8822 24.2695 38.8822C24.7665 38.8822 25.1695 38.4792 25.1695 37.9822V34.3254Z" fill="url(#paint2_linear_210_1343)"/>
<path d="M24.2695 9.65665C24.7665 9.65665 25.1695 10.0596 25.1695 10.5567V14.2134C25.1695 14.7104 24.7665 15.1134 24.2695 15.1134C23.7724 15.1134 23.3695 14.7104 23.3695 14.2134V10.5567C23.3695 10.0596 23.7724 9.65665 24.2695 9.65665Z" fill="url(#paint3_linear_210_1343)"/>
<path d="M32.3066 19.051C32.6962 18.7423 32.7619 18.1763 32.4532 17.7866C32.1446 17.397 31.5785 17.3314 31.1889 17.64L24.4151 23.0061L22.5607 20.6742C22.2514 20.2851 21.6852 20.2205 21.2961 20.5299C20.9071 20.8393 20.8425 21.4054 21.1519 21.7945L23.5653 24.8296C23.8743 25.2181 24.4395 25.2831 24.8286 24.9749L32.3066 19.051Z" fill="url(#paint4_linear_210_1343)"/>
<path fill-rule="evenodd" clip-rule="evenodd" d="M24.2695 5.99997C14.1795 5.99997 6 14.1795 6 24.2695C6 34.3594 14.1795 42.539 24.2695 42.539C34.3595 42.539 42.539 34.3594 42.539 24.2695C42.539 14.1795 34.3595 5.99997 24.2695 5.99997ZM7.8 24.2695C7.8 15.1736 15.1736 7.79997 24.2695 7.79997C33.3653 7.79997 40.739 15.1736 40.739 24.2695C40.739 33.3653 33.3653 40.739 24.2695 40.739C15.1736 40.739 7.8 33.3653 7.8 24.2695Z" fill="url(#paint5_linear_210_1343)"/>
<defs>
<linearGradient id="paint0_linear_210_1343" x1="4.91334" y1="13.3078" x2="39.2865" y2="38.0773" gradientUnits="userSpaceOnUse">
<stop stop-color="#CE2574"/>
<stop offset="1" stop-color="#1C259B"/>
</linearGradient>
<linearGradient id="paint1_linear_210_1343" x1="4.91334" y1="13.3078" x2="39.2865" y2="38.0773" gradientUnits="userSpaceOnUse">
<stop stop-color="#CE2574"/>
<stop offset="1" stop-color="#1C259B"/>
</linearGradient>
<linearGradient id="paint2_linear_210_1343" x1="4.91334" y1="13.3078" x2="39.2865" y2="38.0773" gradientUnits="userSpaceOnUse">
<stop stop-color="#CE2574"/>
<stop offset="1" stop-color="#1C259B"/>
</linearGradient>
<linearGradient id="paint3_linear_210_1343" x1="4.91334" y1="13.3078" x2="39.2865" y2="38.0773" gradientUnits="userSpaceOnUse">
<stop stop-color="#CE2574"/>
<stop offset="1" stop-color="#1C259B"/>
</linearGradient>
<linearGradient id="paint4_linear_210_1343" x1="4.91334" y1="13.3078" x2="39.2865" y2="38.0773" gradientUnits="userSpaceOnUse">
<stop stop-color="#CE2574"/>
<stop offset="1" stop-color="#1C259B"/>
</linearGradient>
<linearGradient id="paint5_linear_210_1343" x1="4.91334" y1="13.3078" x2="39.2865" y2="38.0773" gradientUnits="userSpaceOnUse">
<stop stop-color="#CE2574"/>
<stop offset="1" stop-color="#1C259B"/>
</linearGradient>
</defs>
</svg>
