<svg width="24" height="24" viewBox="0 0 24 24" fill="none" xmlns="http://www.w3.org/2000/svg">
<g id="icons/services/email">
<path id="Union" fill-rule="evenodd" clip-rule="evenodd" d="M14.2726 2.26168C12.0747 1.74875 9.76794 1.99442 7.72735 2.95875C5.68677 3.92307 4.03241 5.54933 3.03327 7.5731C2.03413 9.59687 1.74898 11.8991 2.22418 14.1055C2.69938 16.3119 3.90698 18.2926 5.65064 19.7256C7.39429 21.1587 9.57144 21.9597 11.8281 21.9985C14.0847 22.0373 16.2881 21.3116 18.08 19.9394C18.5185 19.6036 18.6017 18.9759 18.2659 18.5374C17.9302 18.099 17.3025 18.0157 16.864 18.3515C15.4305 19.4493 13.6678 20.0299 11.8625 19.9988C10.0572 19.9678 8.31543 19.3269 6.92051 18.1805C5.52559 17.0341 4.5595 15.4495 4.17934 13.6844C3.79918 11.9193 4.0273 10.0775 4.82662 8.45848C5.62593 6.83947 6.94942 5.53846 8.58189 4.767C10.2144 3.99554 12.0598 3.799 13.8181 4.20934C15.5764 4.61969 17.1443 5.61277 18.2666 7.02713C19.389 8.44147 19.9999 10.1939 20 11.9994V11.9995V12.8994C20 13.3503 19.8209 13.7827 19.5021 14.1015C19.1833 14.4203 18.7509 14.5994 18.3 14.5994C17.8491 14.5994 17.4167 14.4203 17.0979 14.1015C16.7791 13.7827 16.6 13.3503 16.6 12.8994V8.39944C16.6 7.84715 16.1523 7.39944 15.6 7.39944C15.0716 7.39944 14.6389 7.80929 14.6025 8.32845C13.8678 7.80673 12.9697 7.5 12 7.5C9.51472 7.5 7.5 9.51472 7.5 12C7.5 14.4853 9.51472 16.5 12 16.5C13.3026 16.5 14.476 15.9465 15.2977 15.0619C15.4132 15.2223 15.5421 15.3742 15.6837 15.5157C16.3776 16.2096 17.3187 16.5994 18.3 16.5994C19.2813 16.5994 20.2224 16.2096 20.9163 15.5157C21.6102 14.8218 22 13.8807 22 12.8994V11.9994V11.9994C21.9999 9.74241 21.2362 7.55185 19.8333 5.78391C18.4303 4.01596 16.4706 2.7746 14.2726 2.26168ZM9.5 12C9.5 10.6193 10.6193 9.5 12 9.5C13.3807 9.5 14.5 10.6193 14.5 12C14.5 13.3807 13.3807 14.5 12 14.5C10.6193 14.5 9.5 13.3807 9.5 12Z" fill="#0E0833"/>
</g>
</svg>
