<svg width="24" height="24" viewBox="0 0 24 24" fill="none" xmlns="http://www.w3.org/2000/svg">
<g id="icons/services/phone-call">
<path id="Vector" d="M15.1607 14.2655L14.7562 14.6922C14.7562 14.6922 13.7936 15.7047 11.1669 12.9392C8.54029 10.1737 9.50295 9.16122 9.50295 9.16122L9.75806 8.89187C10.3856 8.2305 10.4452 7.16911 9.89672 6.39395L8.77673 4.80898C8.09762 3.84892 6.78652 3.72269 6.00875 4.54141L4.61409 6.00904C4.2292 6.41529 3.97143 6.94065 4.00254 7.52468C4.08254 9.0181 4.72076 12.2298 8.27984 15.9785C12.0549 19.952 15.5971 20.1103 17.0451 19.9672C17.5038 19.9227 17.902 19.6747 18.2229 19.3369L19.4851 18.007C20.3384 17.1092 20.0984 15.5714 19.0069 14.9438L17.3091 13.9659C16.5927 13.5544 15.7207 13.6752 15.1607 14.2646V14.2655Z" fill="white"/>
</g>
</svg>
