<svg width="24" height="24" viewBox="0 0 24 24" fill="none" xmlns="http://www.w3.org/2000/svg">
<g id="icons/services/telegram">
<path id="Union" fill-rule="evenodd" clip-rule="evenodd" d="M20.2331 4.00406C20.2417 4.00142 20.2455 4.00145 20.2455 4.00145L20.2456 4.00145C20.2465 4.00172 20.2521 4.00375 20.2588 4.01044C20.2655 4.01714 20.2675 4.02268 20.2678 4.0236V4.02366C20.2677 4.02369 20.2678 4.02754 20.2651 4.03613L15.276 20.2508C15.2737 20.2581 15.2717 20.2625 15.2706 20.2647C15.2681 20.2659 15.2625 20.2681 15.2536 20.2689C15.2447 20.2696 15.2388 20.2683 15.2361 20.2676C15.2346 20.2656 15.2319 20.2616 15.2285 20.2548L11.9618 13.7214L16.5013 9.18189C16.8919 8.79136 16.8919 8.1582 16.5013 7.76768C16.1108 7.37715 15.4777 7.37715 15.0871 7.76768L10.5476 12.3072L4.01443 9.04067C4.0076 9.03726 4.00362 9.03457 4.00164 9.03307C4.00087 9.03044 3.99959 9.02454 4.00033 9.01561C4.00107 9.00668 4.0033 9.00108 4.00449 8.99861C4.00669 8.99745 4.01106 8.99545 4.01836 8.99321L20.2331 4.00406ZM22.1767 4.6243C22.6549 3.07006 21.1991 1.61428 19.6449 2.0925L3.43018 7.08165C1.68353 7.61908 1.48547 10.0123 3.12 10.8295L9.99213 14.2656C9.9971 14.2681 10.0011 14.2721 10.0036 14.2771L13.4397 21.1492C14.2569 22.7837 16.6501 22.5857 17.1876 20.839L22.1767 4.6243Z" fill="white"/>
</g>
</svg>
