<svg width="80" height="80" viewBox="0 0 80 80" fill="none" xmlns="http://www.w3.org/2000/svg">
<g id="Warning / Shield_Check">
<g id="Airplane">
<path id="Union" fill-rule="evenodd" clip-rule="evenodd" d="M55.3727 17.3549C60.3459 12.3483 68.4577 12.3483 73.4309 17.3549L73.434 17.358C74.03 17.954 74.03 18.9335 73.434 19.5295L73.4326 19.531L61.8807 31.1195C61.3739 31.628 61.3752 32.4511 61.8837 32.958C62.3921 33.4649 63.2153 33.4636 63.7221 32.9551L75.2725 21.368L75.2731 21.3674C76.8833 19.7565 76.8837 17.1323 75.274 15.5211C69.2842 9.49273 59.5184 9.49296 53.5289 15.5217L53.528 15.5226L21.0449 48.1162C21.0375 48.1236 21.0303 48.131 21.0232 48.1385C19.8475 49.376 19.8475 51.3037 21.0232 52.5413L21.0316 52.5501L21.0446 52.5633L30.3889 61.9445L30.3908 61.9463C31.6342 63.1898 33.5979 63.1898 34.8413 61.9463L44.9215 51.8661C45.4292 51.3585 45.4292 50.5353 44.9215 50.0277C44.4138 49.52 43.5907 49.52 43.083 50.0277L33.0029 60.1079C32.7751 60.3356 32.4583 60.336 32.2303 60.1089L32.2292 60.1079L22.9005 50.7423C22.6884 50.5111 22.6884 50.1688 22.9004 49.9376L55.3712 17.3564L55.3727 17.3549ZM6.22134 44.916C5.71483 44.4072 4.89171 44.4053 4.38287 44.9118C3.87403 45.4183 3.87214 46.2414 4.37866 46.7503L28.4019 70.8839C28.9084 71.3927 29.7315 71.3946 30.2404 70.8881C30.7492 70.3816 30.7511 69.5585 30.2446 69.0496L6.22134 44.916ZM53.7539 31.7379C53.6082 31.3754 53.1439 31.2824 52.8674 31.5589L47.7537 36.6726C47.6137 36.8125 47.5652 37.0361 47.6414 37.232L47.6434 37.2371L55.6263 58.0223C56.0242 59.0568 57.3572 59.3316 58.1267 58.5655C60.7113 55.946 61.5494 52.0352 60.2261 48.5805L60.2257 48.5796L53.7539 31.7379ZM51.0289 29.7204C52.6645 28.0848 55.3619 28.7261 56.1744 30.7886L56.1784 30.7988L56.1784 30.7988L62.6532 47.6482L62.6536 47.6493C64.3459 52.0659 63.2722 57.0557 59.9733 60.3958L59.9677 60.4016C57.8672 62.502 54.2729 61.7461 53.1996 58.9557L53.1994 58.9551L45.2182 38.1744L45.2171 38.1715C44.7797 37.0437 45.0257 35.7236 45.9152 34.8341L51.0289 29.7204ZM35.0145 19.8981C29.982 17.9593 24.2043 19.6082 20.985 24.1024C19.761 25.7853 20.561 28.1301 22.4022 28.8666L22.4111 28.8702L22.4201 28.8736L27.6056 30.8596L27.6066 30.86C28.3697 31.1532 29.2117 31.1595 29.947 31.0063C30.683 30.8529 31.4428 30.5127 32.0211 29.9633L32.0348 29.9503L32.0481 29.9369L37.3826 24.5657L37.3928 24.5555L37.4027 24.545C37.9296 23.9904 38.3189 23.2141 38.1925 22.3526C38.0586 21.44 37.405 20.8151 36.6293 20.522L35.0156 19.8985L35.0145 19.8981ZM23.0961 25.6202C25.6164 22.0982 30.137 20.8057 34.0791 22.324L34.0798 22.3243L35.4273 22.8449L30.2197 28.0883C30.0601 28.2348 29.7761 28.3861 29.4167 28.4609C29.0486 28.5376 28.7321 28.5072 28.539 28.4329L28.5373 28.4322L23.3616 26.4501C23.2052 26.3852 23.0824 26.2483 23.0287 26.0732C22.9752 25.8991 23.0055 25.7442 23.0885 25.6307L23.0885 25.6307L23.0961 25.6202Z" fill="url(#paint0_linear_1_431)"/>
</g>
</g>
<defs>
<linearGradient id="paint0_linear_1_431" x1="1.84443" y1="23.0533" x2="61.0028" y2="74.323" gradientUnits="userSpaceOnUse">
<stop stop-color="#CE2574"/>
<stop offset="1" stop-color="#1C259B"/>
</linearGradient>
</defs>
</svg>
