<svg width="80" height="80" viewBox="0 0 80 80" fill="none" xmlns="http://www.w3.org/2000/svg">
<g id="Warning / Shield_Check">
<path id="Union" fill-rule="evenodd" clip-rule="evenodd" d="M41.9715 5.50002C41.9715 4.67159 41.3 4.00002 40.4715 4.00002C39.6431 4.00002 38.9715 4.67159 38.9715 5.50002V23.6852C38.9715 24.5136 39.6431 25.1852 40.4715 25.1852C41.3 25.1852 41.9715 24.5136 41.9715 23.6852V5.50002ZM5.5 38.9716C4.67157 38.9716 4 39.6431 4 40.4716C4 41.3 4.67157 41.9716 5.5 41.9716H23.6852C24.5136 41.9716 25.1852 41.3 25.1852 40.4716C25.1852 39.6431 24.5136 38.9716 23.6852 38.9716H5.5ZM57.2577 38.9716C56.4293 38.9716 55.7577 39.6431 55.7577 40.4716C55.7577 41.3 56.4293 41.9716 57.2577 41.9716H75.4428C76.2713 41.9716 76.9428 41.3 76.9428 40.4716C76.9428 39.6431 76.2713 38.9716 75.4428 38.9716H57.2577ZM40.4715 55.758C41.3 55.758 41.9715 56.4295 41.9715 57.258V75.4431C41.9715 76.2715 41.3 76.9431 40.4715 76.9431C39.6431 76.9431 38.9715 76.2715 38.9715 75.4431V57.258C38.9715 56.4295 39.6431 55.758 40.4715 55.758ZM34.5857 15.2431C34.8161 16.0389 34.3577 16.8707 33.562 17.101C25.6638 19.3874 19.4211 25.6277 17.0983 33.532C16.8648 34.3268 16.0311 34.7818 15.2363 34.5483C14.4415 34.3147 13.9865 33.481 14.22 32.6862C16.8301 23.8042 23.8397 16.7922 32.7278 14.2194C33.5236 13.989 34.3554 14.4474 34.5857 15.2431ZM66.7948 48.257C67.0284 47.4621 66.5734 46.6285 65.7786 46.3949C64.9837 46.1613 64.1501 46.6163 63.9165 47.4111C61.5938 55.3154 55.3511 61.5558 47.4529 63.8421C46.6571 64.0725 46.1987 64.9043 46.4291 65.7C46.6594 66.4958 47.4913 66.9541 48.287 66.7238C57.1751 64.1509 64.1847 57.139 66.7948 48.257ZM15.2363 46.3949C16.0311 46.1613 16.8648 46.6163 17.0983 47.4111C19.4211 55.3154 25.6638 61.5558 33.562 63.8421C34.3577 64.0725 34.8161 64.9043 34.5857 65.7C34.3554 66.4958 33.5236 66.9541 32.7278 66.7238C23.8397 64.1509 16.8301 57.139 14.22 48.257C13.9865 47.4621 14.4415 46.6285 15.2363 46.3949ZM48.287 14.2194C47.4913 13.989 46.6594 14.4474 46.4291 15.2431C46.1987 16.0389 46.6571 16.8707 47.4529 17.101C55.3511 19.3874 61.5938 25.6277 63.9165 33.532C64.1501 34.3268 64.9837 34.7818 65.7786 34.5483C66.5734 34.3147 67.0284 33.481 66.7948 32.6862C64.1847 23.8042 57.1751 16.7922 48.287 14.2194Z" fill="url(#paint0_linear_1_445)"/>
</g>
<defs>
<linearGradient id="paint0_linear_1_445" x1="1.8307" y1="18.5886" x2="70.4501" y2="68.036" gradientUnits="userSpaceOnUse">
<stop stop-color="#CE2574"/>
<stop offset="1" stop-color="#1C259B"/>
</linearGradient>
</defs>
</svg>
