<svg width="80" height="80" viewBox="0 0 80 80" fill="none" xmlns="http://www.w3.org/2000/svg">
<g id="Warning / Shield_Check">
<path id="Union" fill-rule="evenodd" clip-rule="evenodd" d="M20 13.0058V67.1277L20.0006 67.1283C20.0026 67.1303 20.0046 67.1316 20.0059 67.1323H59.1156L59.1159 67.132C59.1196 67.1283 59.123 67.1235 59.1253 67.1184C59.1263 67.1162 59.1271 67.1139 59.1277 67.1115V13.0045L59.127 13.0039C59.1251 13.0019 59.1231 13.0006 59.1218 12.9999H20.0046L20.004 13.0005C20.002 13.0025 20.0007 13.0045 20 13.0058ZM17 13.0034C17 11.3827 18.3137 9.99989 20.0035 9.99989H59.1242C60.7449 9.99989 62.1277 11.3136 62.1277 13.0034V67.1589C62.1277 67.1774 62.1273 67.1959 62.1266 67.2144C62.0679 68.8004 60.7747 70.1323 59.1242 70.1323H20.0035C18.3827 70.1323 17 68.8186 17 67.1288V13.0034ZM41.0559 59.6116C41.0559 58.7832 41.7274 58.1116 42.5559 58.1116H51.5768C52.4052 58.1116 53.0768 58.7832 53.0768 59.6116C53.0768 60.44 52.4052 61.1116 51.5768 61.1116H42.5559C41.7274 61.1116 41.0559 60.44 41.0559 59.6116ZM27.5209 31.0488C26.6925 31.0488 26.0209 31.7203 26.0209 32.5488C26.0209 33.3772 26.6925 34.0488 27.5209 34.0488H48.5697C49.3982 34.0488 50.0697 33.3772 50.0697 32.5488C50.0697 31.7203 49.3982 31.0488 48.5697 31.0488H27.5209ZM26.0209 38.5625C26.0209 37.7341 26.6925 37.0625 27.5209 37.0625H48.5697C49.3982 37.0625 50.0697 37.7341 50.0697 38.5625C50.0697 39.3909 49.3982 40.0625 48.5697 40.0625H27.5209C26.6925 40.0625 26.0209 39.3909 26.0209 38.5625ZM27.5209 25.0348C26.6925 25.0348 26.0209 25.7064 26.0209 26.5348C26.0209 27.3632 26.6925 28.0348 27.5209 28.0348H51.5767C52.4051 28.0348 53.0767 27.3632 53.0767 26.5348C53.0767 25.7064 52.4051 25.0348 51.5767 25.0348H27.5209ZM26.0209 20.5208C26.0209 19.6924 26.6925 19.0208 27.5209 19.0208H51.5767C52.4051 19.0208 53.0767 19.6924 53.0767 20.5208C53.0767 21.3493 52.4051 22.0208 51.5767 22.0208H27.5209C26.6925 22.0208 26.0209 21.3493 26.0209 20.5208ZM27.5209 43.0765C26.6925 43.0765 26.0209 43.748 26.0209 44.5765C26.0209 45.4049 26.6925 46.0765 27.5209 46.0765H43.8488C44.6772 46.0765 45.3488 45.4049 45.3488 44.5765C45.3488 43.748 44.6772 43.0765 43.8488 43.0765H27.5209Z" fill="url(#paint0_linear_1_470)"/>
</g>
<defs>
<linearGradient id="paint0_linear_1_470" x1="15.6579" y1="22.0264" x2="65.5607" y2="49.0135" gradientUnits="userSpaceOnUse">
<stop stop-color="#CE2574"/>
<stop offset="1" stop-color="#1C259B"/>
</linearGradient>
</defs>
</svg>
